<mxfile host="app.diagrams.net" modified="2024-06-22T16:41:12.047Z" agent="Mozilla/5.0 (Windows NT 10.0; Win64; x64; rv:127.0) Gecko/20100101 Firefox/127.0" etag="XLLsWePOAYQq2tPr9Hxr" version="24.6.1" type="google">
  <diagram name="Page-1" id="4AoHVOrVMsW_Vw8L6jwc">
    <mxGraphModel grid="1" page="1" gridSize="10" guides="1" tooltips="1" connect="1" arrows="1" fold="1" pageScale="1" pageWidth="850" pageHeight="1100" math="0" shadow="0">
      <root>
        <mxCell id="0" />
        <mxCell id="1" parent="0" />
        <mxCell id="b2RV7N76rcfzbF2hciMe-1" style="edgeStyle=orthogonalEdgeStyle;rounded=0;orthogonalLoop=1;jettySize=auto;html=1;entryX=0.5;entryY=0;entryDx=0;entryDy=0;" edge="1" parent="1" source="b2RV7N76rcfzbF2hciMe-2" target="b2RV7N76rcfzbF2hciMe-4">
          <mxGeometry relative="1" as="geometry" />
        </mxCell>
        <mxCell id="b2RV7N76rcfzbF2hciMe-2" value="&lt;font style=&quot;font-size: 14px;&quot;&gt;Начало&lt;/font&gt;" style="ellipse;whiteSpace=wrap;html=1;fontFamily=Times New Roman;fontSize=14;fillColor=#d5e8d4;strokeColor=#82b366;" vertex="1" parent="1">
          <mxGeometry x="110" y="50" width="80" height="80" as="geometry" />
        </mxCell>
        <mxCell id="b2RV7N76rcfzbF2hciMe-3" style="edgeStyle=orthogonalEdgeStyle;rounded=0;orthogonalLoop=1;jettySize=auto;html=1;entryX=0.5;entryY=0;entryDx=0;entryDy=0;" edge="1" parent="1" source="b2RV7N76rcfzbF2hciMe-4" target="b2RV7N76rcfzbF2hciMe-7">
          <mxGeometry relative="1" as="geometry">
            <mxPoint x="150" y="240" as="targetPoint" />
          </mxGeometry>
        </mxCell>
        <mxCell id="b2RV7N76rcfzbF2hciMe-4" value="Инициализация на микроконтролера" style="rounded=1;whiteSpace=wrap;html=1;fontFamily=Times New Roman;fontSize=14;fillColor=#fff2cc;strokeColor=#d6b656;" vertex="1" parent="1">
          <mxGeometry x="90" y="150" width="120" height="70" as="geometry" />
        </mxCell>
        <mxCell id="b2RV7N76rcfzbF2hciMe-8" style="edgeStyle=orthogonalEdgeStyle;rounded=0;orthogonalLoop=1;jettySize=auto;html=1;exitX=0;exitY=0.5;exitDx=0;exitDy=0;" edge="1" parent="1" source="b2RV7N76rcfzbF2hciMe-7">
          <mxGeometry relative="1" as="geometry">
            <mxPoint x="150" y="240" as="targetPoint" />
            <Array as="points">
              <mxPoint x="40" y="330" />
              <mxPoint x="40" y="240" />
            </Array>
          </mxGeometry>
        </mxCell>
        <mxCell id="b2RV7N76rcfzbF2hciMe-7" value="&lt;div&gt;Получена заявка&lt;/div&gt;&lt;div&gt;от PC за извършване&lt;/div&gt;&lt;div&gt;на измерване?&lt;/div&gt;" style="rhombus;whiteSpace=wrap;html=1;fontSize=14;fontFamily=Times New Roman;fillColor=#dae8fc;strokeColor=#6c8ebf;verticalAlign=middle;horizontal=1;spacing=0;spacingTop=4;" vertex="1" parent="1">
          <mxGeometry x="75" y="260" width="150" height="140" as="geometry" />
        </mxCell>
        <mxCell id="b2RV7N76rcfzbF2hciMe-9" value="Не" style="text;html=1;align=center;verticalAlign=middle;resizable=0;points=[];autosize=1;strokeColor=none;fillColor=none;fontFamily=Times New Roman;fontSize=14;" vertex="1" parent="1">
          <mxGeometry x="35" y="303" width="40" height="30" as="geometry" />
        </mxCell>
        <mxCell id="b2RV7N76rcfzbF2hciMe-12" style="edgeStyle=orthogonalEdgeStyle;rounded=0;orthogonalLoop=1;jettySize=auto;html=1;entryX=0.5;entryY=0;entryDx=0;entryDy=0;" edge="1" parent="1" source="b2RV7N76rcfzbF2hciMe-7" target="b2RV7N76rcfzbF2hciMe-13">
          <mxGeometry relative="1" as="geometry">
            <mxPoint x="240" y="320" as="targetPoint" />
            <mxPoint x="225" y="320" as="sourcePoint" />
            <Array as="points">
              <mxPoint x="150" y="320" />
            </Array>
          </mxGeometry>
        </mxCell>
        <mxCell id="b2RV7N76rcfzbF2hciMe-52" style="edgeStyle=orthogonalEdgeStyle;rounded=0;orthogonalLoop=1;jettySize=auto;html=1;entryX=0.5;entryY=0;entryDx=0;entryDy=0;" edge="1" parent="1" source="b2RV7N76rcfzbF2hciMe-13" target="b2RV7N76rcfzbF2hciMe-15">
          <mxGeometry relative="1" as="geometry" />
        </mxCell>
        <mxCell id="b2RV7N76rcfzbF2hciMe-13" value="Записване на получените настройки на измерването" style="rounded=1;whiteSpace=wrap;html=1;fontFamily=Times New Roman;fontSize=14;fillColor=#f8cecc;strokeColor=#b85450;" vertex="1" parent="1">
          <mxGeometry x="90" y="420" width="120" height="70" as="geometry" />
        </mxCell>
        <mxCell id="b2RV7N76rcfzbF2hciMe-14" value="Да" style="text;html=1;align=center;verticalAlign=middle;resizable=0;points=[];autosize=1;strokeColor=none;fillColor=none;fontFamily=Times New Roman;fontSize=14;" vertex="1" parent="1">
          <mxGeometry x="110" y="390" width="40" height="30" as="geometry" />
        </mxCell>
        <mxCell id="b2RV7N76rcfzbF2hciMe-53" style="edgeStyle=orthogonalEdgeStyle;rounded=0;orthogonalLoop=1;jettySize=auto;html=1;entryX=0.5;entryY=0;entryDx=0;entryDy=0;" edge="1" parent="1" source="b2RV7N76rcfzbF2hciMe-15" target="b2RV7N76rcfzbF2hciMe-17">
          <mxGeometry relative="1" as="geometry">
            <Array as="points">
              <mxPoint x="150" y="600" />
              <mxPoint x="230" y="600" />
              <mxPoint x="230" y="130" />
              <mxPoint x="310" y="130" />
            </Array>
          </mxGeometry>
        </mxCell>
        <mxCell id="b2RV7N76rcfzbF2hciMe-15" value="Избор и задаване на референтно напрежение за аналоговата част" style="rounded=1;whiteSpace=wrap;html=1;fontFamily=Times New Roman;fontSize=14;fillColor=#fff2cc;strokeColor=#d6b656;" vertex="1" parent="1">
          <mxGeometry x="90" y="510" width="120" height="70" as="geometry" />
        </mxCell>
        <mxCell id="b2RV7N76rcfzbF2hciMe-54" style="edgeStyle=orthogonalEdgeStyle;rounded=0;orthogonalLoop=1;jettySize=auto;html=1;entryX=0.5;entryY=0;entryDx=0;entryDy=0;" edge="1" parent="1" source="b2RV7N76rcfzbF2hciMe-17" target="b2RV7N76rcfzbF2hciMe-18">
          <mxGeometry relative="1" as="geometry" />
        </mxCell>
        <mxCell id="b2RV7N76rcfzbF2hciMe-17" value="&lt;div&gt;Настройване на таймера за синхронизация&lt;br&gt;&lt;/div&gt;&lt;div&gt;на отчетите&lt;/div&gt;" style="rounded=1;whiteSpace=wrap;html=1;fontFamily=Times New Roman;fontSize=14;fillColor=#fff2cc;strokeColor=#d6b656;" vertex="1" parent="1">
          <mxGeometry x="250" y="150" width="120" height="70" as="geometry" />
        </mxCell>
        <mxCell id="b2RV7N76rcfzbF2hciMe-55" style="edgeStyle=orthogonalEdgeStyle;rounded=0;orthogonalLoop=1;jettySize=auto;html=1;entryX=0.5;entryY=0;entryDx=0;entryDy=0;" edge="1" parent="1" source="b2RV7N76rcfzbF2hciMe-18" target="b2RV7N76rcfzbF2hciMe-19">
          <mxGeometry relative="1" as="geometry" />
        </mxCell>
        <mxCell id="b2RV7N76rcfzbF2hciMe-18" value="Отчитане на температурата на студените краища на термодвойките" style="rounded=1;whiteSpace=wrap;html=1;fontFamily=Times New Roman;fontSize=14;fillColor=#fff2cc;strokeColor=#d6b656;" vertex="1" parent="1">
          <mxGeometry x="250" y="240" width="120" height="70" as="geometry" />
        </mxCell>
        <mxCell id="b2RV7N76rcfzbF2hciMe-57" style="edgeStyle=orthogonalEdgeStyle;rounded=0;orthogonalLoop=1;jettySize=auto;html=1;entryX=0.5;entryY=0;entryDx=0;entryDy=0;" edge="1" parent="1" source="b2RV7N76rcfzbF2hciMe-19" target="b2RV7N76rcfzbF2hciMe-20">
          <mxGeometry relative="1" as="geometry" />
        </mxCell>
        <mxCell id="b2RV7N76rcfzbF2hciMe-19" value="Изчисляване и прилагане на отместване чрез ЦАП" style="rounded=1;whiteSpace=wrap;html=1;fontFamily=Times New Roman;fontSize=14;fillColor=#fff2cc;strokeColor=#d6b656;" vertex="1" parent="1">
          <mxGeometry x="250" y="330" width="120" height="70" as="geometry" />
        </mxCell>
        <mxCell id="b2RV7N76rcfzbF2hciMe-58" style="edgeStyle=orthogonalEdgeStyle;rounded=0;orthogonalLoop=1;jettySize=auto;html=1;entryX=0.5;entryY=0;entryDx=0;entryDy=0;" edge="1" parent="1" source="b2RV7N76rcfzbF2hciMe-20" target="b2RV7N76rcfzbF2hciMe-21">
          <mxGeometry relative="1" as="geometry" />
        </mxCell>
        <mxCell id="b2RV7N76rcfzbF2hciMe-20" value="Изчисляване на броя изходящи USB пакети за измерването" style="rounded=1;whiteSpace=wrap;html=1;fontFamily=Times New Roman;fontSize=14;fillColor=#fff2cc;strokeColor=#d6b656;" vertex="1" parent="1">
          <mxGeometry x="250" y="420" width="120" height="70" as="geometry" />
        </mxCell>
        <mxCell id="b2RV7N76rcfzbF2hciMe-59" style="edgeStyle=orthogonalEdgeStyle;rounded=0;orthogonalLoop=1;jettySize=auto;html=1;entryX=0.5;entryY=0;entryDx=0;entryDy=0;" edge="1" parent="1" source="b2RV7N76rcfzbF2hciMe-21" target="b2RV7N76rcfzbF2hciMe-22">
          <mxGeometry relative="1" as="geometry">
            <Array as="points">
              <mxPoint x="310" y="600" />
              <mxPoint x="390" y="600" />
              <mxPoint x="390" y="130" />
              <mxPoint x="520" y="130" />
              <mxPoint x="520" y="150" />
            </Array>
          </mxGeometry>
        </mxCell>
        <mxCell id="b2RV7N76rcfzbF2hciMe-21" value="Изпращане на параметри и величини към PC" style="rounded=1;whiteSpace=wrap;html=1;fontFamily=Times New Roman;fontSize=14;fillColor=#f8cecc;strokeColor=#b85450;" vertex="1" parent="1">
          <mxGeometry x="250" y="510" width="120" height="70" as="geometry" />
        </mxCell>
        <mxCell id="b2RV7N76rcfzbF2hciMe-22" value="Задаване на индикация за готовност за измерване" style="rounded=1;whiteSpace=wrap;html=1;fontFamily=Times New Roman;fontSize=14;fillColor=#fff2cc;strokeColor=#d6b656;" vertex="1" parent="1">
          <mxGeometry x="459.5" y="150" width="120" height="70" as="geometry" />
        </mxCell>
        <mxCell id="b2RV7N76rcfzbF2hciMe-23" style="edgeStyle=orthogonalEdgeStyle;rounded=0;orthogonalLoop=1;jettySize=auto;html=1;entryX=0.5;entryY=0;entryDx=0;entryDy=0;exitX=0.5;exitY=1;exitDx=0;exitDy=0;" edge="1" parent="1" source="b2RV7N76rcfzbF2hciMe-22" target="b2RV7N76rcfzbF2hciMe-25">
          <mxGeometry relative="1" as="geometry">
            <mxPoint x="519.5" y="218" as="sourcePoint" />
            <mxPoint x="519.5" y="238" as="targetPoint" />
          </mxGeometry>
        </mxCell>
        <mxCell id="b2RV7N76rcfzbF2hciMe-24" style="edgeStyle=orthogonalEdgeStyle;rounded=0;orthogonalLoop=1;jettySize=auto;html=1;exitX=0;exitY=0.5;exitDx=0;exitDy=0;" edge="1" parent="1" source="b2RV7N76rcfzbF2hciMe-25">
          <mxGeometry relative="1" as="geometry">
            <mxPoint x="520" y="240" as="targetPoint" />
            <Array as="points">
              <mxPoint x="410" y="330" />
              <mxPoint x="410" y="240" />
              <mxPoint x="520" y="240" />
            </Array>
          </mxGeometry>
        </mxCell>
        <mxCell id="b2RV7N76rcfzbF2hciMe-25" value="&lt;div&gt;Получен сигнал&lt;/div&gt;&lt;div&gt;за стартиране на измерването?&lt;/div&gt;" style="rhombus;whiteSpace=wrap;html=1;fontSize=14;fontFamily=Times New Roman;fillColor=#dae8fc;strokeColor=#6c8ebf;verticalAlign=middle;horizontal=1;spacing=0;spacingTop=4;" vertex="1" parent="1">
          <mxGeometry x="444.5" y="260" width="150" height="140" as="geometry" />
        </mxCell>
        <mxCell id="b2RV7N76rcfzbF2hciMe-26" value="Не" style="text;html=1;align=center;verticalAlign=middle;resizable=0;points=[];autosize=1;strokeColor=none;fillColor=none;fontFamily=Times New Roman;fontSize=14;" vertex="1" parent="1">
          <mxGeometry x="404.5" y="303" width="40" height="30" as="geometry" />
        </mxCell>
        <mxCell id="b2RV7N76rcfzbF2hciMe-27" style="edgeStyle=orthogonalEdgeStyle;rounded=0;orthogonalLoop=1;jettySize=auto;html=1;entryX=0.5;entryY=0;entryDx=0;entryDy=0;" edge="1" parent="1" source="b2RV7N76rcfzbF2hciMe-25" target="b2RV7N76rcfzbF2hciMe-29">
          <mxGeometry relative="1" as="geometry">
            <mxPoint x="519.5" y="423" as="targetPoint" />
            <mxPoint x="594.5" y="323" as="sourcePoint" />
            <Array as="points" />
          </mxGeometry>
        </mxCell>
        <mxCell id="b2RV7N76rcfzbF2hciMe-28" value="Да" style="text;html=1;align=center;verticalAlign=middle;resizable=0;points=[];autosize=1;strokeColor=none;fillColor=none;fontFamily=Times New Roman;fontSize=14;" vertex="1" parent="1">
          <mxGeometry x="480" y="393" width="40" height="30" as="geometry" />
        </mxCell>
        <mxCell id="b2RV7N76rcfzbF2hciMe-51" style="edgeStyle=orthogonalEdgeStyle;rounded=0;orthogonalLoop=1;jettySize=auto;html=1;entryX=0.5;entryY=0;entryDx=0;entryDy=0;" edge="1" parent="1" source="b2RV7N76rcfzbF2hciMe-29" target="b2RV7N76rcfzbF2hciMe-30">
          <mxGeometry relative="1" as="geometry" />
        </mxCell>
        <mxCell id="b2RV7N76rcfzbF2hciMe-29" value="Калибриране и стартиране на всички АЦП" style="rounded=1;whiteSpace=wrap;html=1;fontFamily=Times New Roman;fontSize=14;fillColor=#fff2cc;strokeColor=#d6b656;" vertex="1" parent="1">
          <mxGeometry x="459.5" y="420" width="120" height="70" as="geometry" />
        </mxCell>
        <mxCell id="b2RV7N76rcfzbF2hciMe-60" style="edgeStyle=orthogonalEdgeStyle;rounded=0;orthogonalLoop=1;jettySize=auto;html=1;entryX=0.5;entryY=0;entryDx=0;entryDy=0;" edge="1" parent="1" source="b2RV7N76rcfzbF2hciMe-30" target="b2RV7N76rcfzbF2hciMe-33">
          <mxGeometry relative="1" as="geometry">
            <Array as="points">
              <mxPoint x="520" y="600" />
              <mxPoint x="610" y="600" />
              <mxPoint x="610" y="130" />
              <mxPoint x="754" y="130" />
            </Array>
          </mxGeometry>
        </mxCell>
        <mxCell id="b2RV7N76rcfzbF2hciMe-30" value="Стартиране на таймера за синхронизация на отчетите" style="rounded=1;whiteSpace=wrap;html=1;fontFamily=Times New Roman;fontSize=14;fillColor=#fff2cc;strokeColor=#d6b656;" vertex="1" parent="1">
          <mxGeometry x="459.5" y="510" width="120" height="70" as="geometry" />
        </mxCell>
        <mxCell id="b2RV7N76rcfzbF2hciMe-32" style="edgeStyle=orthogonalEdgeStyle;rounded=0;orthogonalLoop=1;jettySize=auto;html=1;exitX=0;exitY=0.5;exitDx=0;exitDy=0;" edge="1" parent="1" source="b2RV7N76rcfzbF2hciMe-33">
          <mxGeometry relative="1" as="geometry">
            <mxPoint x="754" y="155" as="targetPoint" />
            <Array as="points">
              <mxPoint x="640" y="240" />
              <mxPoint x="640" y="155" />
            </Array>
            <mxPoint x="678.0000000000002" y="250" as="sourcePoint" />
          </mxGeometry>
        </mxCell>
        <mxCell id="b2RV7N76rcfzbF2hciMe-33" value="&lt;div&gt;Запълнен буфер&lt;/div&gt;&lt;div&gt;с измервания?&lt;/div&gt;" style="rhombus;whiteSpace=wrap;html=1;fontSize=14;fontFamily=Times New Roman;fillColor=#dae8fc;strokeColor=#6c8ebf;verticalAlign=middle;horizontal=1;spacing=0;spacingTop=4;" vertex="1" parent="1">
          <mxGeometry x="679" y="170" width="150" height="140" as="geometry" />
        </mxCell>
        <mxCell id="b2RV7N76rcfzbF2hciMe-34" value="Не" style="text;html=1;align=center;verticalAlign=middle;resizable=0;points=[];autosize=1;strokeColor=none;fillColor=none;fontFamily=Times New Roman;fontSize=14;" vertex="1" parent="1">
          <mxGeometry x="639" y="215" width="40" height="30" as="geometry" />
        </mxCell>
        <mxCell id="b2RV7N76rcfzbF2hciMe-35" style="edgeStyle=orthogonalEdgeStyle;rounded=0;orthogonalLoop=1;jettySize=auto;html=1;entryX=0.5;entryY=0;entryDx=0;entryDy=0;" edge="1" parent="1" source="b2RV7N76rcfzbF2hciMe-33" target="b2RV7N76rcfzbF2hciMe-37">
          <mxGeometry relative="1" as="geometry">
            <mxPoint x="748" y="340" as="targetPoint" />
            <mxPoint x="823" y="240" as="sourcePoint" />
            <Array as="points" />
          </mxGeometry>
        </mxCell>
        <mxCell id="b2RV7N76rcfzbF2hciMe-36" value="Да" style="text;html=1;align=center;verticalAlign=middle;resizable=0;points=[];autosize=1;strokeColor=none;fillColor=none;fontFamily=Times New Roman;fontSize=14;" vertex="1" parent="1">
          <mxGeometry x="713" y="303" width="40" height="30" as="geometry" />
        </mxCell>
        <mxCell id="b2RV7N76rcfzbF2hciMe-65" style="edgeStyle=orthogonalEdgeStyle;rounded=0;orthogonalLoop=1;jettySize=auto;html=1;entryX=0.5;entryY=0;entryDx=0;entryDy=0;" edge="1" parent="1" source="b2RV7N76rcfzbF2hciMe-37" target="b2RV7N76rcfzbF2hciMe-40">
          <mxGeometry relative="1" as="geometry" />
        </mxCell>
        <mxCell id="b2RV7N76rcfzbF2hciMe-37" value="&lt;div&gt;Изпращане на буфер с измервания&amp;nbsp;&lt;/div&gt;&lt;div&gt;към PC&lt;/div&gt;" style="rounded=1;whiteSpace=wrap;html=1;fontFamily=Times New Roman;fontSize=14;fillColor=#f8cecc;strokeColor=#b85450;" vertex="1" parent="1">
          <mxGeometry x="694" y="330" width="120" height="70" as="geometry" />
        </mxCell>
        <mxCell id="b2RV7N76rcfzbF2hciMe-63" style="edgeStyle=orthogonalEdgeStyle;rounded=0;orthogonalLoop=1;jettySize=auto;html=1;exitX=0;exitY=0.5;exitDx=0;exitDy=0;" edge="1" parent="1" source="b2RV7N76rcfzbF2hciMe-40">
          <mxGeometry relative="1" as="geometry">
            <mxPoint x="754" y="140" as="targetPoint" />
            <Array as="points">
              <mxPoint x="630" y="493" />
              <mxPoint x="630" y="140" />
            </Array>
          </mxGeometry>
        </mxCell>
        <mxCell id="b2RV7N76rcfzbF2hciMe-66" style="edgeStyle=orthogonalEdgeStyle;rounded=0;orthogonalLoop=1;jettySize=auto;html=1;entryX=1;entryY=0.5;entryDx=0;entryDy=0;" edge="1" parent="1" source="b2RV7N76rcfzbF2hciMe-40" target="b2RV7N76rcfzbF2hciMe-46">
          <mxGeometry relative="1" as="geometry">
            <Array as="points">
              <mxPoint x="754" y="655" />
            </Array>
          </mxGeometry>
        </mxCell>
        <mxCell id="b2RV7N76rcfzbF2hciMe-40" value="&lt;div&gt;Достигнат целеви&lt;/div&gt;&lt;div&gt;брой отчети?&lt;/div&gt;" style="rhombus;whiteSpace=wrap;html=1;fontSize=14;fontFamily=Times New Roman;fillColor=#dae8fc;strokeColor=#6c8ebf;verticalAlign=middle;horizontal=1;spacing=0;spacingTop=4;" vertex="1" parent="1">
          <mxGeometry x="679.5" y="423" width="149" height="140" as="geometry" />
        </mxCell>
        <mxCell id="b2RV7N76rcfzbF2hciMe-41" value="Не" style="text;html=1;align=center;verticalAlign=middle;resizable=0;points=[];autosize=1;strokeColor=none;fillColor=none;fontFamily=Times New Roman;fontSize=14;" vertex="1" parent="1">
          <mxGeometry x="639" y="467" width="40" height="30" as="geometry" />
        </mxCell>
        <mxCell id="b2RV7N76rcfzbF2hciMe-43" value="Да" style="text;html=1;align=center;verticalAlign=middle;resizable=0;points=[];autosize=1;strokeColor=none;fillColor=none;fontFamily=Times New Roman;fontSize=14;" vertex="1" parent="1">
          <mxGeometry x="713" y="563" width="40" height="30" as="geometry" />
        </mxCell>
        <mxCell id="b2RV7N76rcfzbF2hciMe-68" style="edgeStyle=orthogonalEdgeStyle;rounded=0;orthogonalLoop=1;jettySize=auto;html=1;" edge="1" parent="1" source="b2RV7N76rcfzbF2hciMe-46">
          <mxGeometry relative="1" as="geometry">
            <mxPoint x="150" y="230" as="targetPoint" />
            <Array as="points">
              <mxPoint x="20" y="655" />
              <mxPoint x="20" y="230" />
            </Array>
          </mxGeometry>
        </mxCell>
        <mxCell id="b2RV7N76rcfzbF2hciMe-46" value="Нулиране на всички състояния и връщане в режим на изчакване" style="rounded=1;whiteSpace=wrap;html=1;fontFamily=Times New Roman;fontSize=14;fillColor=#fff2cc;strokeColor=#d6b656;" vertex="1" parent="1">
          <mxGeometry x="350" y="620" width="120" height="70" as="geometry" />
        </mxCell>
      </root>
    </mxGraphModel>
  </diagram>
</mxfile>
